<svg xmlns="http://www.w3.org/2000/svg" width="46" height="46" viewBox="0 0 46 46">
  <g id="Group_6280" data-name="Group 6280" transform="translate(-11360 -15561)">
    <g id="Group_6246" data-name="Group 6246" transform="translate(114)">
      <g id="Group_6243" data-name="Group 6243" transform="translate(53 2)">
        <g id="Group_6241" data-name="Group 6241" transform="translate(55 -1)">
          <g id="Group_6239" data-name="Group 6239" transform="translate(55 1)">
            <g id="Path_2956" data-name="Path 2956" transform="translate(11083 15559)" fill="#2d344d">
              <path d="M 23 45.5 C 19.96229934692383 45.5 17.0157299041748 44.90517044067383 14.24213981628418 43.73204040527344 C 11.56291007995605 42.59883117675781 9.156620025634766 40.97642135620117 7.090099811553955 38.9099006652832 C 5.023580074310303 36.84337997436523 3.401170015335083 34.43709182739258 2.267960071563721 31.75786018371582 C 1.09483003616333 28.9842700958252 0.5 26.03770065307617 0.5 23 C 0.5 19.96229934692383 1.09483003616333 17.0157299041748 2.267960071563721 14.24213981628418 C 3.401170015335083 11.56291007995605 5.023580074310303 9.156620025634766 7.090099811553955 7.090099811553955 C 9.156620025634766 5.023580074310303 11.56291007995605 3.401170015335083 14.24213981628418 2.267960071563721 C 17.0157299041748 1.09483003616333 19.96229934692383 0.5 23 0.5 C 26.03770065307617 0.5 28.9842700958252 1.09483003616333 31.75786018371582 2.267960071563721 C 34.43709182739258 3.401170015335083 36.84337997436523 5.023580074310303 38.9099006652832 7.090099811553955 C 40.97642135620117 9.156620025634766 42.59883117675781 11.56291007995605 43.73204040527344 14.24213981628418 C 44.90517044067383 17.0157299041748 45.5 19.96229934692383 45.5 23 C 45.5 26.03770065307617 44.90517044067383 28.9842700958252 43.73204040527344 31.75786018371582 C 42.59883117675781 34.43709182739258 40.97642135620117 36.84337997436523 38.9099006652832 38.9099006652832 C 36.84337997436523 40.97642135620117 34.43709182739258 42.59883117675781 31.75786018371582 43.73204040527344 C 28.9842700958252 44.90517044067383 26.03770065307617 45.5 23 45.5 Z" stroke="none"/>
              <path d="M 23 1 C 20.02957916259766 1 17.14854049682617 1.581539154052734 14.43691062927246 2.728458404541016 C 11.81729125976562 3.836471557617188 9.464408874511719 5.422889709472656 7.443649291992188 7.443649291992188 C 5.422889709472656 9.464408874511719 3.836471557617188 11.81729125976562 2.728458404541016 14.43691062927246 C 1.581539154052734 17.14854049682617 1 20.02957916259766 1 23 C 1 25.97042083740234 1.581539154052734 28.85145950317383 2.728458404541016 31.56309127807617 C 3.836471557617188 34.18270874023438 5.422889709472656 36.53559112548828 7.443649291992188 38.55635070800781 C 9.464408874511719 40.57711029052734 11.81729125976562 42.16352844238281 14.43691062927246 43.27154159545898 C 17.14854049682617 44.41846084594727 20.02957916259766 45 23 45 C 25.97042083740234 45 28.85145950317383 44.41846084594727 31.56309127807617 43.27154159545898 C 34.18270874023438 42.16352844238281 36.53559112548828 40.57711029052734 38.55635070800781 38.55635070800781 C 40.57711029052734 36.53559112548828 42.16352844238281 34.18270874023438 43.27154159545898 31.56309127807617 C 44.41846084594727 28.85145950317383 45 25.97042083740234 45 23 C 45 20.02957916259766 44.41846084594727 17.14854049682617 43.27154159545898 14.43691062927246 C 42.16352844238281 11.81729125976562 40.57711029052734 9.464408874511719 38.55635070800781 7.443649291992188 C 36.53559112548828 5.422889709472656 34.18270874023438 3.836471557617188 31.56309127807617 2.728458404541016 C 28.85145950317383 1.581539154052734 25.97042083740234 1 23 1 M 23 0 C 35.70254898071289 0 46 10.29745101928711 46 23 C 46 35.70254898071289 35.70254898071289 46 23 46 C 10.29745101928711 46 0 35.70254898071289 0 23 C 0 10.29745101928711 10.29745101928711 0 23 0 Z" stroke="none" fill="#fff"/>
            </g>
          </g>
        </g>
      </g>
    </g>
    <g id="Grupo_6142" data-name="Grupo 6142" transform="translate(10050.748 15299.227)">
      <g id="Grupo_6115" data-name="Grupo 6115" transform="translate(1317.252 273.773)">
        <g id="Grupo_6119" data-name="Grupo 6119" transform="translate(0 0)">
          <g id="Unión_514" data-name="Unión 514" transform="translate(0 0)">
            <path id="Path_2953" data-name="Path 2953" d="M27.177,17.266c-3.389,0-8.243-.454-8.291-.458l-.031,0H2.489A1.992,1.992,0,0,1,.5,14.813V2.491A1.992,1.992,0,0,1,2.489.5H18.88a1.994,1.994,0,0,1,1.992,1.991V5.911l.654.009c3.961.056,4.7.36,4.8.412a43.319,43.319,0,0,1,3.6,5.7l.027.047h0c.079.159.632,1.45-.045,4.985A11,11,0,0,1,27.177,17.266Z" transform="translate(0.162 0.163)" fill="#fff"/>
            <path id="Path_2954" data-name="Path 2954" d="M27.34,16.766a16.722,16.722,0,0,0,2.159-.1c.5-2.885.086-3.983.031-4.112l-.019-.034a52.936,52.936,0,0,0-3.392-5.45,21.265,21.265,0,0,0-4.44-.321l-1.308-.019V2.654a1.33,1.33,0,0,0-1.329-1.328H2.652A1.328,1.328,0,0,0,1.327,2.654V14.976A1.328,1.328,0,0,0,2.652,16.3h16.4l.062.006c.048,0,4.872.455,8.229.455m0,1.326c-3.461,0-8.354-.461-8.354-.461H2.652A2.654,2.654,0,0,1,0,14.976V2.654A2.651,2.651,0,0,1,2.652,0H19.043A2.654,2.654,0,0,1,21.7,2.654V5.421c2.092.03,4.709.149,5.2.553.839.69,3.769,5.893,3.769,5.893s.9,1.312,0,5.764C30.443,17.977,29.07,18.092,27.34,18.092Z" transform="translate(-0.001 0)" fill="#fff"/>
          </g>
          <g id="Elipse_623" data-name="Elipse 623" transform="translate(3.408 14.203)" fill="#fff" stroke="#2d344d" stroke-width="1">
            <circle cx="3.946" cy="3.946" r="3.946" stroke="none"/>
            <circle cx="3.946" cy="3.946" r="3.446" fill="none"/>
          </g>
          <g id="Elipse_624" data-name="Elipse 624" transform="translate(20.265 14.146)" fill="#fff" stroke="#2d344d" stroke-width="1">
            <circle cx="3.946" cy="3.946" r="3.946" stroke="none"/>
            <circle cx="3.946" cy="3.946" r="3.446" fill="none"/>
          </g>
          <g id="Grupo_6114" data-name="Grupo 6114" transform="translate(4.734 2.902)">
            <rect id="Rectángulo_1869" data-name="Rectángulo 1869" width="3.979" height="9.974" rx="1" transform="translate(3.157)" fill="#2d344d"/>
            <rect id="Rectángulo_1870" data-name="Rectángulo 1870" width="3.979" height="10.182" rx="1" transform="translate(10.182 3.157) rotate(90)" fill="#2d344d"/>
          </g>
        </g>
      </g>
      <path id="Trazado_2908" data-name="Trazado 2908" d="M-.347-.017A17.481,17.481,0,0,1,3.319.225,17.34,17.34,0,0,1,4.847,2.612,6.443,6.443,0,0,1,5.54,5.1,12.631,12.631,0,0,0-.347,4.937C-.349,4.884-.347-.017-.347-.017Z" transform="translate(1340.102 280.514)" fill="#2d344d"/>
    </g>
  </g>
</svg>
