<svg xmlns="http://www.w3.org/2000/svg" width="46" height="46" viewBox="0 0 46 46">
  <g id="Group_6277" data-name="Group 6277" transform="translate(-11138 -15613)">
    <g id="Group_6249" data-name="Group 6249" transform="translate(-108 52)">
      <g id="Group_6243" data-name="Group 6243" transform="translate(53 2)">
        <g id="Group_6241" data-name="Group 6241" transform="translate(55 -1)">
          <g id="Group_6239" data-name="Group 6239" transform="translate(55 1)">
            <g id="Ellipse_644" data-name="Ellipse 644" transform="translate(11083 15559)" fill="#2d344d" stroke="#2d344d" stroke-width="1">
              <circle cx="23" cy="23" r="23" stroke="none"/>
              <circle cx="23" cy="23" r="22.5" fill="none"/>
            </g>
          </g>
        </g>
      </g>
    </g>
    <path id="Sustracción_194" data-name="Sustracción 194" d="M-5235.975,5377.341c-.226,0-.452-.011-.675-.032a5.809,5.809,0,0,1-.616-.094,2.4,2.4,0,0,1-.475-.147.538.538,0,0,1-.254-.193c.011-.012.019-.54.022-1.56v-3.434c0-.05,0-4.955-.028-5a14.529,14.529,0,0,1,.823-1.2c.229-.3.471-.587.715-.85a6.785,6.785,0,0,1,.7-.675.277.277,0,0,0,0-.214.357.357,0,0,0-.251-.162.8.8,0,0,0-.184-.021,2.53,2.53,0,0,0-.369.039h-.02a2.439,2.439,0,0,1-.4.044.8.8,0,0,1-.34-.065c-.219-.1-.326-.182-.373-.292a.718.718,0,0,1,.019-.459,1.247,1.247,0,0,1,.294-.532,1.572,1.572,0,0,1,.484-.354,1.949,1.949,0,0,1,.405-.136,2.344,2.344,0,0,1,.5-.057.752.752,0,0,1,.58.188.734.734,0,0,1,.04.647v.023a.8.8,0,0,0-.034.35.248.248,0,0,0,.241.208h.037l.016-.024c.164-.392.605-1.417,1.121-2.483.368-.759.7-1.389,1-1.876a4.193,4.193,0,0,1,.905-1.174,2.707,2.707,0,0,1,.863-.3,15.411,15.411,0,0,1,1.569-.258,37.627,37.627,0,0,1,4.443-.251,33.438,33.438,0,0,1,3.646.184,15.964,15.964,0,0,1,3.175.629,5.137,5.137,0,0,1,1.02,1.251c.334.518.7,1.148,1.079,1.868.563,1.063,1.023,2.053,1.2,2.43v.009a.169.169,0,0,1,0-.044,1.6,1.6,0,0,1,.039-.238,2.169,2.169,0,0,1,.169-.539,1.969,1.969,0,0,1,.234-.393.394.394,0,0,1,.226-.156.291.291,0,0,1,.041,0,2.42,2.42,0,0,1,.653.134,1.5,1.5,0,0,1,.686.406.65.65,0,0,1,.089.61.908.908,0,0,1-.271.4,1.254,1.254,0,0,1-.481.12,2.261,2.261,0,0,0-.54.106c-.117.049-.187.105-.205.169a.118.118,0,0,0,.017.094h0a8.3,8.3,0,0,1,.9.866,6.034,6.034,0,0,1,.676.9,3.109,3.109,0,0,1,.427,1.047c.027.036.022,3.831.02,5,0,2.5-.012,4.972-.02,5a2.675,2.675,0,0,1-.786.261,5.226,5.226,0,0,1-.96.085,5.734,5.734,0,0,1-1-.086,3.268,3.268,0,0,1-.831-.257c-.015-.029-.015-.661,0-1.735v-.038h-18.212v.039c-.011,1.08-.011,1.718,0,1.733a.655.655,0,0,1-.259.211,1.88,1.88,0,0,1-.413.146,4.9,4.9,0,0,1-1.062.138Zm19.5-4.862a.87.87,0,0,0-.885.849.871.871,0,0,0,.885.852.87.87,0,0,0,.884-.852.864.864,0,0,0-.27-.609.866.866,0,0,0-.622-.239Zm-18.318-.307a.87.87,0,0,0-.883.852.869.869,0,0,0,.883.852.87.87,0,0,0,.885-.852.874.874,0,0,0-.266-.612.87.87,0,0,0-.621-.244Zm3.834-4.862a.989.989,0,0,0-.386.077.982.982,0,0,0-.314.2.935.935,0,0,0-.211.3.9.9,0,0,0-.08.363,3.983,3.983,0,0,0,.523.523,5.3,5.3,0,0,0,.654.478,5.528,5.528,0,0,0,.9.465,10.945,10.945,0,0,0,2.016.583,8.078,8.078,0,0,0,1.4.167h2.442a8.335,8.335,0,0,0,1.422-.167,11.221,11.221,0,0,0,2.053-.582,5.648,5.648,0,0,0,.917-.464,5.448,5.448,0,0,0,.66-.48,3.946,3.946,0,0,0,.527-.522.918.918,0,0,0-.078-.364.925.925,0,0,0-.211-.3.954.954,0,0,0-.314-.2.969.969,0,0,0-.386-.077Zm15.754-1.485a2.054,2.054,0,0,0-2.177,1.891,2.055,2.055,0,0,0,2.177,1.891,2.056,2.056,0,0,0,2.178-1.891,2.055,2.055,0,0,0-2.186-1.9Zm-19.582,0a2.054,2.054,0,0,0-2.177,1.891,2.054,2.054,0,0,0,2.177,1.891,2.055,2.055,0,0,0,2.177-1.892,2.054,2.054,0,0,0-2.185-1.895Zm9.984-2.594c1.705,0,3.376.036,5.121.111a22.775,22.775,0,0,1,3,.286h.008a2.913,2.913,0,0,0,.405.053.337.337,0,0,0,.3-.167,19.511,19.511,0,0,0-2.41-4.338c-.741-.467-3.979-.821-7.527-.821-3.259,0-5.633.308-6.348.822a18.318,18.318,0,0,0-2.138,4.215c.026.156.114.2.377.2.181,0,.45-.024.824-.057.635-.057,1.595-.135,3.074-.2,1.856-.07,3.6-.11,5.3-.11Z" transform="translate(16386 10269.008)" fill="#fafafa"/>
  </g>
</svg>
