<svg xmlns="http://www.w3.org/2000/svg" width="46" height="46" viewBox="0 0 46 46">
  <g id="Group_6275" data-name="Group 6275" transform="translate(-11083 -15613)">
    <g id="Group_6248" data-name="Group 6248" transform="translate(-163 52)">
      <g id="Group_6243" data-name="Group 6243" transform="translate(53 2)">
        <g id="Group_6241" data-name="Group 6241" transform="translate(55 -1)">
          <g id="Group_6239" data-name="Group 6239" transform="translate(55 1)">
            <g id="Path_2955" data-name="Path 2955" transform="translate(11083 15559)" fill="#2d344d">
              <path d="M 23 45.5 C 19.96229934692383 45.5 17.0157299041748 44.90517044067383 14.24213981628418 43.73204040527344 C 11.56291007995605 42.59883117675781 9.156620025634766 40.97642135620117 7.090099811553955 38.9099006652832 C 5.023580074310303 36.84337997436523 3.401170015335083 34.43709182739258 2.267960071563721 31.75786018371582 C 1.09483003616333 28.9842700958252 0.5 26.03770065307617 0.5 23 C 0.5 19.96229934692383 1.09483003616333 17.0157299041748 2.267960071563721 14.24213981628418 C 3.401170015335083 11.56291007995605 5.023580074310303 9.156620025634766 7.090099811553955 7.090099811553955 C 9.156620025634766 5.023580074310303 11.56291007995605 3.401170015335083 14.24213981628418 2.267960071563721 C 17.0157299041748 1.09483003616333 19.96229934692383 0.5 23 0.5 C 26.03770065307617 0.5 28.9842700958252 1.09483003616333 31.75786018371582 2.267960071563721 C 34.43709182739258 3.401170015335083 36.84337997436523 5.023580074310303 38.9099006652832 7.090099811553955 C 40.97642135620117 9.156620025634766 42.59883117675781 11.56291007995605 43.73204040527344 14.24213981628418 C 44.90517044067383 17.0157299041748 45.5 19.96229934692383 45.5 23 C 45.5 26.03770065307617 44.90517044067383 28.9842700958252 43.73204040527344 31.75786018371582 C 42.59883117675781 34.43709182739258 40.97642135620117 36.84337997436523 38.9099006652832 38.9099006652832 C 36.84337997436523 40.97642135620117 34.43709182739258 42.59883117675781 31.75786018371582 43.73204040527344 C 28.9842700958252 44.90517044067383 26.03770065307617 45.5 23 45.5 Z" stroke="none"/>
              <path d="M 23 1 C 20.02957916259766 1 17.14854049682617 1.581539154052734 14.43691062927246 2.728458404541016 C 11.81729125976562 3.836471557617188 9.464408874511719 5.422889709472656 7.443649291992188 7.443649291992188 C 5.422889709472656 9.464408874511719 3.836471557617188 11.81729125976562 2.728458404541016 14.43691062927246 C 1.581539154052734 17.14854049682617 1 20.02957916259766 1 23 C 1 25.97042083740234 1.581539154052734 28.85145950317383 2.728458404541016 31.56309127807617 C 3.836471557617188 34.18270874023438 5.422889709472656 36.53559112548828 7.443649291992188 38.55635070800781 C 9.464408874511719 40.57711029052734 11.81729125976562 42.16352844238281 14.43691062927246 43.27154159545898 C 17.14854049682617 44.41846084594727 20.02957916259766 45 23 45 C 25.97042083740234 45 28.85145950317383 44.41846084594727 31.56309127807617 43.27154159545898 C 34.18270874023438 42.16352844238281 36.53559112548828 40.57711029052734 38.55635070800781 38.55635070800781 C 40.57711029052734 36.53559112548828 42.16352844238281 34.18270874023438 43.27154159545898 31.56309127807617 C 44.41846084594727 28.85145950317383 45 25.97042083740234 45 23 C 45 20.02957916259766 44.41846084594727 17.14854049682617 43.27154159545898 14.43691062927246 C 42.16352844238281 11.81729125976562 40.57711029052734 9.464408874511719 38.55635070800781 7.443649291992188 C 36.53559112548828 5.422889709472656 34.18270874023438 3.836471557617188 31.56309127807617 2.728458404541016 C 28.85145950317383 1.581539154052734 25.97042083740234 1 23 1 M 23 0 C 35.70254898071289 0 46 10.29745101928711 46 23 C 46 35.70254898071289 35.70254898071289 46 23 46 C 10.29745101928711 46 0 35.70254898071289 0 23 C 0 10.29745101928711 10.29745101928711 0 23 0 Z" stroke="none" fill="#2d344d"/>
            </g>
          </g>
        </g>
      </g>
    </g>
    <g id="Grupo_6113" data-name="Grupo 6113" transform="translate(9907.236 15383)">
      <path id="Unión_522" data-name="Unión 522" d="M-39.831-11195.387v-7.91a2.373,2.373,0,0,1,2.373-2.373,2.373,2.373,0,0,1,2.373,2.373v7.91a2.373,2.373,0,0,1-2.373,2.373,2.373,2.373,0,0,1-2.373-2.373Zm5.876-8.678a3.508,3.508,0,0,0-3.5-3.5,3.509,3.509,0,0,0-3.506,3.5v6.645h0a4.746,4.746,0,0,1-3.613-4.611V-11212a4.746,4.746,0,0,1,4.746-4.746h4.746a4.746,4.746,0,0,1,4.746,4.746v9.967a4.732,4.732,0,0,1-3.617,4.609ZM-35-11218.092a.791.791,0,0,1,.7-.869l3.582-.375a.791.791,0,0,1,.869.705.79.79,0,0,1-.7.867l-3.582.375h-.082a.792.792,0,0,1-.785-.779Zm-5.657.7-3.582-.375a.8.8,0,0,1-.534-.289.794.794,0,0,1-.17-.584.79.79,0,0,1,.869-.7l3.582.375a.792.792,0,0,1,.7.869.789.789,0,0,1-.791.707Z" transform="translate(1236.715 11460.554)" fill="#fff"/>
      <g id="Elipse_622" data-name="Elipse 622" transform="translate(1195.302 239)" fill="#2d344d">
        <path d="M 3.955175399780273 7.410355567932129 C 2.049985408782959 7.410355567932129 0.4999954104423523 5.860365390777588 0.4999954104423523 3.955175399780273 C 0.4999954104423523 2.049985408782959 2.049985408782959 0.4999954104423523 3.955175399780273 0.4999954104423523 C 5.860365390777588 0.4999954104423523 7.410355567932129 2.049985408782959 7.410355567932129 3.955175399780273 C 7.410355567932129 5.860365390777588 5.860365390777588 7.410355567932129 3.955175399780273 7.410355567932129 Z" stroke="none"/>
        <path d="M 3.955175399780273 0.999995231628418 C 2.325685501098633 0.999995231628418 0.999995231628418 2.325685501098633 0.999995231628418 3.955175399780273 C 0.999995231628418 5.584665298461914 2.325685501098633 6.910355567932129 3.955175399780273 6.910355567932129 C 5.584665298461914 6.910355567932129 6.910355567932129 5.584665298461914 6.910355567932129 3.955175399780273 C 6.910355567932129 2.325685501098633 5.584665298461914 0.999995231628418 3.955175399780273 0.999995231628418 M 3.955175399780273 -4.76837158203125e-06 C 6.13955545425415 -4.76837158203125e-06 7.910355567932129 1.770795345306396 7.910355567932129 3.955175399780273 C 7.910355567932129 6.13955545425415 6.13955545425415 7.910355567932129 3.955175399780273 7.910355567932129 C 1.770795345306396 7.910355567932129 -4.76837158203125e-06 6.13955545425415 -4.76837158203125e-06 3.955175399780273 C -4.76837158203125e-06 1.770795345306396 1.770795345306396 -4.76837158203125e-06 3.955175399780273 -4.76837158203125e-06 Z" stroke="none" fill="#fff"/>
      </g>
    </g>
  </g>
</svg>
