<svg xmlns="http://www.w3.org/2000/svg" width="46" height="46" viewBox="0 0 46 46">
  <g id="Group_6281" data-name="Group 6281" transform="translate(-11083 -15559)">
    <g id="Path_2962" data-name="Path 2962" transform="translate(11083 15559)" fill="#2d344d">
      <path d="M 23 45.5 C 19.96229934692383 45.5 17.0157299041748 44.90517044067383 14.24213981628418 43.73204040527344 C 11.56291007995605 42.59883117675781 9.156620025634766 40.97642135620117 7.090099811553955 38.9099006652832 C 5.023580074310303 36.84337997436523 3.401170015335083 34.43709182739258 2.267960071563721 31.75786018371582 C 1.09483003616333 28.9842700958252 0.5 26.03770065307617 0.5 23 C 0.5 19.96229934692383 1.09483003616333 17.0157299041748 2.267960071563721 14.24213981628418 C 3.401170015335083 11.56291007995605 5.023580074310303 9.156620025634766 7.090099811553955 7.090099811553955 C 9.156620025634766 5.023580074310303 11.56291007995605 3.401170015335083 14.24213981628418 2.267960071563721 C 17.0157299041748 1.09483003616333 19.96229934692383 0.5 23 0.5 C 26.03770065307617 0.5 28.9842700958252 1.09483003616333 31.75786018371582 2.267960071563721 C 34.43709182739258 3.401170015335083 36.84337997436523 5.023580074310303 38.9099006652832 7.090099811553955 C 40.97642135620117 9.156620025634766 42.59883117675781 11.56291007995605 43.73204040527344 14.24213981628418 C 44.90517044067383 17.0157299041748 45.5 19.96229934692383 45.5 23 C 45.5 26.03770065307617 44.90517044067383 28.9842700958252 43.73204040527344 31.75786018371582 C 42.59883117675781 34.43709182739258 40.97642135620117 36.84337997436523 38.9099006652832 38.9099006652832 C 36.84337997436523 40.97642135620117 34.43709182739258 42.59883117675781 31.75786018371582 43.73204040527344 C 28.9842700958252 44.90517044067383 26.03770065307617 45.5 23 45.5 Z" stroke="none"/>
      <path d="M 23 1 C 20.02957916259766 1 17.14854049682617 1.581539154052734 14.43691062927246 2.728458404541016 C 11.81729125976562 3.836471557617188 9.464408874511719 5.422889709472656 7.443649291992188 7.443649291992188 C 5.422889709472656 9.464408874511719 3.836471557617188 11.81729125976562 2.728458404541016 14.43691062927246 C 1.581539154052734 17.14854049682617 1 20.02957916259766 1 23 C 1 25.97042083740234 1.581539154052734 28.85145950317383 2.728458404541016 31.56309127807617 C 3.836471557617188 34.18270874023438 5.422889709472656 36.53559112548828 7.443649291992188 38.55635070800781 C 9.464408874511719 40.57711029052734 11.81729125976562 42.16352844238281 14.43691062927246 43.27154159545898 C 17.14854049682617 44.41846084594727 20.02957916259766 45 23 45 C 25.97042083740234 45 28.85145950317383 44.41846084594727 31.56309127807617 43.27154159545898 C 34.18270874023438 42.16352844238281 36.53559112548828 40.57711029052734 38.55635070800781 38.55635070800781 C 40.57711029052734 36.53559112548828 42.16352844238281 34.18270874023438 43.27154159545898 31.56309127807617 C 44.41846084594727 28.85145950317383 45 25.97042083740234 45 23 C 45 20.02957916259766 44.41846084594727 17.14854049682617 43.27154159545898 14.43691062927246 C 42.16352844238281 11.81729125976562 40.57711029052734 9.464408874511719 38.55635070800781 7.443649291992188 C 36.53559112548828 5.422889709472656 34.18270874023438 3.836471557617188 31.56309127807617 2.728458404541016 C 28.85145950317383 1.581539154052734 25.97042083740234 1 23 1 M 23 0 C 35.70254898071289 0 46 10.29745101928711 46 23 C 46 35.70254898071289 35.70254898071289 46 23 46 C 10.29745101928711 46 0 35.70254898071289 0 23 C 0 10.29745101928711 10.29745101928711 0 23 0 Z" stroke="none" fill="#2d344d"/>
    </g>
    <g id="Unión_538" data-name="Unión 538" transform="translate(11045.766 26755.57)">
      <path id="Path_2943" data-name="Path 2943" d="M61.57-11161.5H59.279a3.834,3.834,0,0,1-3.752-3.75v-5.4H54.5a.729.729,0,0,1-.749-.75v-7.652H50.439v.75c0,.152-.061.152-.139.152s-.134,0-.134-.152v-2.549H47.638c-.079,0-.138,0-.138-.15h2.666v-2.551c0-.148.06-.148.134-.148s.139,0,.139.148v.75h3.315v-1.949a.835.835,0,0,1,.749-.75H66.346a.835.835,0,0,1,.749.75v13.352a.729.729,0,0,1-.749.75H65.322v5.4A3.834,3.834,0,0,1,61.57-11161.5Zm-1.6-14.7a2.629,2.629,0,0,0-2.212,2.551,2.676,2.676,0,0,0,2.662,2.7,2.676,2.676,0,0,0,2.662-2.7,2.629,2.629,0,0,0-2.212-2.551h3.694a2.281,2.281,0,0,0,2.254-2.25v-4.5a2.28,2.28,0,0,0-2.254-2.25H56.28a2.28,2.28,0,0,0-2.254,2.25v4.5a2.281,2.281,0,0,0,2.254,2.25Z" transform="translate(0.25 0.25)" fill="#fff"/>
      <path id="Path_2944" data-name="Path 2944" d="M61.82-11162a3.007,3.007,0,0,0,3-3v-6.15h1.773v-4.65a3.546,3.546,0,0,1-1.777.6H63.524a3.154,3.154,0,0,1,.563,1.8,3.4,3.4,0,0,1-3.412,3.449,3.4,3.4,0,0,1-3.412-3.449,3.154,3.154,0,0,1,.563-1.8H56.53a3.546,3.546,0,0,1-1.777-.6v4.65h1.774v6.15a3.007,3.007,0,0,0,3,3H61.82m-8.293-17.553v-2.25H51.166v2.25h2.361m8.293,19.053H59.529a4.56,4.56,0,0,1-4.5-4.5v-4.65h-.274a1.457,1.457,0,0,1-1.5-1.5v-6.9H51.439a.926.926,0,0,1-.889.9.925.925,0,0,1-.884-.9v-1.8H47.888a.834.834,0,0,1-.889-.9.8.8,0,0,1,.889-.75h1.777v-1.8a.832.832,0,0,1,.884-.9.833.833,0,0,1,.889.9h1.815v-1.2a1.554,1.554,0,0,1,1.5-1.5H66.6a1.551,1.551,0,0,1,1.5,1.5v13.352a1.455,1.455,0,0,1-1.5,1.5h-.274v4.65A4.557,4.557,0,0,1,61.82-11160.5Zm-1.146-14.7a1.823,1.823,0,0,0-1.912,1.8,1.948,1.948,0,0,0,1.912,1.949,1.948,1.948,0,0,0,1.912-1.949A1.823,1.823,0,0,0,60.674-11175.2Zm-4.144-9a1.555,1.555,0,0,0-1.5,1.5v4.5a1.555,1.555,0,0,0,1.5,1.5h8.288a1.555,1.555,0,0,0,1.5-1.5v-4.5a1.555,1.555,0,0,0-1.5-1.5Z" fill="#fff"/>
    </g>
  </g>
</svg>
