<svg xmlns="http://www.w3.org/2000/svg" width="46" height="46" viewBox="0 0 46 46">
  <g id="Group_6282" data-name="Group 6282" transform="translate(-11138 -15560)">
    <g id="Group_6239" data-name="Group 6239" transform="translate(55 1)">
      <g id="Path_2963" data-name="Path 2963" transform="translate(11083 15559)" fill="#2d344d">
        <path d="M 23 45.5 C 19.96229934692383 45.5 17.0157299041748 44.90517044067383 14.24213981628418 43.73204040527344 C 11.56291007995605 42.59883117675781 9.156620025634766 40.97642135620117 7.090099811553955 38.9099006652832 C 5.023580074310303 36.84337997436523 3.401170015335083 34.43709182739258 2.267960071563721 31.75786018371582 C 1.09483003616333 28.9842700958252 0.5 26.03770065307617 0.5 23 C 0.5 19.96229934692383 1.09483003616333 17.0157299041748 2.267960071563721 14.24213981628418 C 3.401170015335083 11.56291007995605 5.023580074310303 9.156620025634766 7.090099811553955 7.090099811553955 C 9.156620025634766 5.023580074310303 11.56291007995605 3.401170015335083 14.24213981628418 2.267960071563721 C 17.0157299041748 1.09483003616333 19.96229934692383 0.5 23 0.5 C 26.03770065307617 0.5 28.9842700958252 1.09483003616333 31.75786018371582 2.267960071563721 C 34.43709182739258 3.401170015335083 36.84337997436523 5.023580074310303 38.9099006652832 7.090099811553955 C 40.97642135620117 9.156620025634766 42.59883117675781 11.56291007995605 43.73204040527344 14.24213981628418 C 44.90517044067383 17.0157299041748 45.5 19.96229934692383 45.5 23 C 45.5 26.03770065307617 44.90517044067383 28.9842700958252 43.73204040527344 31.75786018371582 C 42.59883117675781 34.43709182739258 40.97642135620117 36.84337997436523 38.9099006652832 38.9099006652832 C 36.84337997436523 40.97642135620117 34.43709182739258 42.59883117675781 31.75786018371582 43.73204040527344 C 28.9842700958252 44.90517044067383 26.03770065307617 45.5 23 45.5 Z" stroke="none"/>
        <path d="M 23 1 C 20.02957916259766 1 17.14854049682617 1.581539154052734 14.43691062927246 2.728458404541016 C 11.81729125976562 3.836471557617188 9.464408874511719 5.422889709472656 7.443649291992188 7.443649291992188 C 5.422889709472656 9.464408874511719 3.836471557617188 11.81729125976562 2.728458404541016 14.43691062927246 C 1.581539154052734 17.14854049682617 1 20.02957916259766 1 23 C 1 25.97042083740234 1.581539154052734 28.85145950317383 2.728458404541016 31.56309127807617 C 3.836471557617188 34.18270874023438 5.422889709472656 36.53559112548828 7.443649291992188 38.55635070800781 C 9.464408874511719 40.57711029052734 11.81729125976562 42.16352844238281 14.43691062927246 43.27154159545898 C 17.14854049682617 44.41846084594727 20.02957916259766 45 23 45 C 25.97042083740234 45 28.85145950317383 44.41846084594727 31.56309127807617 43.27154159545898 C 34.18270874023438 42.16352844238281 36.53559112548828 40.57711029052734 38.55635070800781 38.55635070800781 C 40.57711029052734 36.53559112548828 42.16352844238281 34.18270874023438 43.27154159545898 31.56309127807617 C 44.41846084594727 28.85145950317383 45 25.97042083740234 45 23 C 45 20.02957916259766 44.41846084594727 17.14854049682617 43.27154159545898 14.43691062927246 C 42.16352844238281 11.81729125976562 40.57711029052734 9.464408874511719 38.55635070800781 7.443649291992188 C 36.53559112548828 5.422889709472656 34.18270874023438 3.836471557617188 31.56309127807617 2.728458404541016 C 28.85145950317383 1.581539154052734 25.97042083740234 1 23 1 M 23 0 C 35.70254898071289 0 46 10.29745101928711 46 23 C 46 35.70254898071289 35.70254898071289 46 23 46 C 10.29745101928711 46 0 35.70254898071289 0 23 C 0 10.29745101928711 10.29745101928711 0 23 0 Z" stroke="none" fill="#2d344d"/>
      </g>
    </g>
    <g id="Grupo_6150" data-name="Grupo 6150" transform="translate(9692.161 15299.778)">
      <g id="Trazado_2929" data-name="Trazado 2929" transform="translate(1463.386 277.516)">
        <path id="Path_2939" data-name="Path 2939" d="M8.6,6.254H7.74A6.4,6.4,0,0,0,4.476,5.113H4.412A5.73,5.73,0,0,0,1.321,6.254H.447a.442.442,0,0,1-.087-.3v-.1l-.014-.1L-.21,1.916a2.8,2.8,0,0,1,.188-.422H.011l.154-.1L2.972-.5H5.808L9.116,1.414l.138.08H9.4a.363.363,0,0,1,.081.206L8.715,5.689l-.024.128V5.95A.442.442,0,0,1,8.6,6.254Z" transform="translate(0.983 1.522)" fill="#fff"/>
        <path id="Path_2940" data-name="Path 2940" d="M3.4,1.044.844,2.761l.434,2.993h.113a6.182,6.182,0,0,1,3.264-1.14,6.737,6.737,0,0,1,3.506,1.14h.126l.574-3L5.91,1.044H3.4M3.052-1H6.209L9.654.994c.454,0,.823.594.823,1.327L9.684,6.471c0,.733-.368,1.327-.823,1.327H7.815A5.968,5.968,0,0,0,4.673,6.657,5.249,5.249,0,0,0,1.766,7.8H.693C.239,7.8-.13,7.2-.13,6.471l-.6-4.151S-.363.994.091.994Z" transform="translate(0.731 1)" fill="#fff"/>
      </g>
      <g id="Trazado_2930" data-name="Trazado 2930" transform="translate(1466.116 285.738)">
        <path id="Path_2941" data-name="Path 2941" d="M4.5,1.621H.721C.6,1.621.5,1.485.5,1.317v-.25A1.631,1.631,0,0,1,.937.585L.944.58.954.573A3.42,3.42,0,0,1,2.608-.116a4.067,4.067,0,0,1,1.771.69,1.413,1.413,0,0,1,.345.46v.282C4.723,1.485,4.624,1.621,4.5,1.621Z" transform="translate(0.241 1.138)" fill="#fff"/>
        <path id="Path_2942" data-name="Path 2942" d="M2.849-.616A4.769,4.769,0,0,1,4.98.2a2.027,2.027,0,0,1,.727,1.327v.311c0,.733-.431,1.327-.962,1.327H.962C.431,3.165,0,2.571,0,1.839V1.528A2,2,0,0,1,.836.2,4.1,4.1,0,0,1,2.849-.616Z" transform="translate(0 0.616)" fill="#fff"/>
      </g>
      <path id="Unión_533" data-name="Unión 533" d="M8.988,6.823c-.409,0-.741-.458-.741-1.022V2.986q0-.042,0-.084c.042-.519.362-.911.741-.908H9.07a1.093,1.093,0,0,1-.01-.141V1.322H0v-.3L6.488.178l2.58.48C9.118.284,9.352.01,9.628,0s.517.258.574.63L12.655.178l6.488.891v.253H10.216v.531a1.094,1.094,0,0,1-.009.141h.157a.758.758,0,0,1,.663.564l8.182,2.16a.667.667,0,0,1,.486.372,1.228,1.228,0,0,1,.125.746c-.152.538-.57.837-.977.7L11.106,4.493V5.8c0,.564-.332,1.022-.741,1.022Z" transform="translate(1449 275.228)" fill="#fff"/>
      <g id="Grupo_6131" data-name="Grupo 6131" transform="translate(1466.972 289.914)">
        <g id="Rectángulo_1909" data-name="Rectángulo 1909" fill="#fff" stroke="#fff" stroke-width="1">
          <rect width="4.036" height="5.143" rx="1" stroke="none"/>
          <rect x="0.5" y="0.5" width="3.036" height="4.143" rx="0.5" fill="none"/>
        </g>
        <ellipse id="Elipse_626" data-name="Elipse 626" cx="1.028" cy="1.416" rx="1.028" ry="1.416" transform="translate(1.028 1.273)" fill="#2d344d"/>
      </g>
      <path id="Unión_536" data-name="Unión 536" d="M9.067,6.164l-2.58.482L0,5.8V5.5H9.059V4.971a1.1,1.1,0,0,1,.009-.143h-.08c-.377,0-.7-.383-.741-.9,0-.031,0-.061,0-.092V1.022C8.247.458,8.579,0,8.988,0h1.376c.409,0,.741.458.741,1.022V2.33L18.842.286c.407-.14.825.159.977.7a1.228,1.228,0,0,1-.125.746.667.667,0,0,1-.486.372L11.026,4.264a.758.758,0,0,1-.663.564h-.157a1.1,1.1,0,0,1,.009.143V5.5h8.927v.253l-6.488.893L10.2,6.189c-.055.377-.3.646-.576.64s-.515-.286-.561-.665Z" transform="translate(1488.678 282.051) rotate(180)" fill="#fff"/>
    </g>
  </g>
</svg>
