<svg xmlns="http://www.w3.org/2000/svg" width="46" height="46" viewBox="0 0 46 46">
  <g id="Group_6283" data-name="Group 6283" transform="translate(-11193 -15559)">
    <g id="Group_6241" data-name="Group 6241" transform="translate(55 -1)">
      <g id="Group_6239" data-name="Group 6239" transform="translate(55 1)">
        <g id="Path_2966" data-name="Path 2966" transform="translate(11083 15559)" fill="#2d344d">
          <path d="M 23 45.5 C 19.96229934692383 45.5 17.0157299041748 44.90517044067383 14.24213981628418 43.73204040527344 C 11.56291007995605 42.59883117675781 9.156620025634766 40.97642135620117 7.090099811553955 38.9099006652832 C 5.023580074310303 36.84337997436523 3.401170015335083 34.43709182739258 2.267960071563721 31.75786018371582 C 1.09483003616333 28.9842700958252 0.5 26.03770065307617 0.5 23 C 0.5 19.96229934692383 1.09483003616333 17.0157299041748 2.267960071563721 14.24213981628418 C 3.401170015335083 11.56291007995605 5.023580074310303 9.156620025634766 7.090099811553955 7.090099811553955 C 9.156620025634766 5.023580074310303 11.56291007995605 3.401170015335083 14.24213981628418 2.267960071563721 C 17.0157299041748 1.09483003616333 19.96229934692383 0.5 23 0.5 C 26.03770065307617 0.5 28.9842700958252 1.09483003616333 31.75786018371582 2.267960071563721 C 34.43709182739258 3.401170015335083 36.84337997436523 5.023580074310303 38.9099006652832 7.090099811553955 C 40.97642135620117 9.156620025634766 42.59883117675781 11.56291007995605 43.73204040527344 14.24213981628418 C 44.90517044067383 17.0157299041748 45.5 19.96229934692383 45.5 23 C 45.5 26.03770065307617 44.90517044067383 28.9842700958252 43.73204040527344 31.75786018371582 C 42.59883117675781 34.43709182739258 40.97642135620117 36.84337997436523 38.9099006652832 38.9099006652832 C 36.84337997436523 40.97642135620117 34.43709182739258 42.59883117675781 31.75786018371582 43.73204040527344 C 28.9842700958252 44.90517044067383 26.03770065307617 45.5 23 45.5 Z" stroke="none"/>
          <path d="M 23 1 C 20.02957916259766 1 17.14854049682617 1.581539154052734 14.43691062927246 2.728458404541016 C 11.81729125976562 3.836471557617188 9.464408874511719 5.422889709472656 7.443649291992188 7.443649291992188 C 5.422889709472656 9.464408874511719 3.836471557617188 11.81729125976562 2.728458404541016 14.43691062927246 C 1.581539154052734 17.14854049682617 1 20.02957916259766 1 23 C 1 25.97042083740234 1.581539154052734 28.85145950317383 2.728458404541016 31.56309127807617 C 3.836471557617188 34.18270874023438 5.422889709472656 36.53559112548828 7.443649291992188 38.55635070800781 C 9.464408874511719 40.57711029052734 11.81729125976562 42.16352844238281 14.43691062927246 43.27154159545898 C 17.14854049682617 44.41846084594727 20.02957916259766 45 23 45 C 25.97042083740234 45 28.85145950317383 44.41846084594727 31.56309127807617 43.27154159545898 C 34.18270874023438 42.16352844238281 36.53559112548828 40.57711029052734 38.55635070800781 38.55635070800781 C 40.57711029052734 36.53559112548828 42.16352844238281 34.18270874023438 43.27154159545898 31.56309127807617 C 44.41846084594727 28.85145950317383 45 25.97042083740234 45 23 C 45 20.02957916259766 44.41846084594727 17.14854049682617 43.27154159545898 14.43691062927246 C 42.16352844238281 11.81729125976562 40.57711029052734 9.464408874511719 38.55635070800781 7.443649291992188 C 36.53559112548828 5.422889709472656 34.18270874023438 3.836471557617188 31.56309127807617 2.728458404541016 C 28.85145950317383 1.581539154052734 25.97042083740234 1 23 1 M 23 0 C 35.70254898071289 0 46 10.29745101928711 46 23 C 46 35.70254898071289 35.70254898071289 46 23 46 C 10.29745101928711 46 0 35.70254898071289 0 23 C 0 10.29745101928711 10.29745101928711 0 23 0 Z" stroke="none" fill="#2d344d"/>
        </g>
      </g>
    </g>
    <g id="Grupo_6146" data-name="Grupo 6146" transform="translate(9815.45 15295.832)">
      <g id="Unión_516" data-name="Unión 516" transform="translate(1388.564 274.774)">
        <path id="Path_2945" data-name="Path 2945" d="M11.85,23.859h-.171V21.067H9.622L9.48,21.6l-.6,2.229H8.707l.561-1.988.164-.582L8.885,21a.718.718,0,0,1-.408-.646v-.257a.571.571,0,0,1,0-.058l.091-.8H6.841a.717.717,0,0,1-.716-.716v-1.83H1.217A.717.717,0,0,1,.5,15.976V1.218A.717.717,0,0,1,1.217.5H8.278a.717.717,0,0,1,.716.716V7.791h5.554V1.218A.717.717,0,0,1,15.264.5h7.06a.717.717,0,0,1,.717.716V15.976a.718.718,0,0,1-.717.717H17.418v1.83a.717.717,0,0,1-.716.716H14.861l.091.8a.493.493,0,0,1,0,.058v.257A.715.715,0,0,1,14.53,21l-.568.251.169.6.558,1.975h-.175l-.6-2.231-.142-.531H11.81l.01.726Z" transform="translate(0.215 0.214)" fill="#fff"/>
        <path id="Path_2946" data-name="Path 2946" d="M14.455,20.567v-.246l-.181-1.581h2.644V16.194h5.622V1.434H15.48V8.723H8.494V1.434H1.433v14.76H7.057v2.546H9.589l-.179,1.571v.256h5.047m-1.663,4.224H11.179V22h-.791l-.466,1.743-.272,1.017H7.977l.817-2.9a1.43,1.43,0,0,1-.817-1.293v-.257a1.229,1.229,0,0,1,.006-.139H7.057a1.431,1.431,0,0,1-1.432-1.432V17.626H1.433A1.433,1.433,0,0,1,0,16.192V1.434A1.433,1.433,0,0,1,1.433,0H8.494A1.433,1.433,0,0,1,9.926,1.434V7.291h4.122V1.434A1.432,1.432,0,0,1,15.48,0h7.06a1.433,1.433,0,0,1,1.433,1.432V16.192a1.434,1.434,0,0,1-1.433,1.433H18.351v1.114a1.431,1.431,0,0,1-1.432,1.432H15.88a1.225,1.225,0,0,1,.008.139v.257a1.431,1.431,0,0,1-.852,1.308l.815,2.886H14.18L13.44,22h-.687Z" transform="translate(-0.001 -0.002)" fill="#fff"/>
      </g>
      <g id="Elipse_625" data-name="Elipse 625" transform="translate(1396.687 278.2)" fill="#2d344d">
        <path d="M 3.862598896026611 7.225198745727539 C 2.008458852767944 7.225198745727539 0.4999988973140717 5.716738700866699 0.4999988973140717 3.862598896026611 C 0.4999988973140717 2.008458852767944 2.008458852767944 0.4999988973140717 3.862598896026611 0.4999988973140717 C 5.716738700866699 0.4999988973140717 7.225198745727539 2.008458852767944 7.225198745727539 3.862598896026611 C 7.225198745727539 5.716738700866699 5.716738700866699 7.225198745727539 3.862598896026611 7.225198745727539 Z" stroke="none"/>
        <path d="M 3.862598896026611 0.9999990463256836 C 2.284158706665039 0.9999990463256836 0.9999990463256836 2.284158706665039 0.9999990463256836 3.862598896026611 C 0.9999990463256836 5.441039085388184 2.284158706665039 6.725198745727539 3.862598896026611 6.725198745727539 C 5.441039085388184 6.725198745727539 6.725198745727539 5.441039085388184 6.725198745727539 3.862598896026611 C 6.725198745727539 2.284158706665039 5.441039085388184 0.9999990463256836 3.862598896026611 0.9999990463256836 M 3.862598896026611 -9.5367431640625e-07 C 5.995848655700684 -9.5367431640625e-07 7.725198745727539 1.729348659515381 7.725198745727539 3.862598896026611 C 7.725198745727539 5.995848655700684 5.995848655700684 7.725198745727539 3.862598896026611 7.725198745727539 C 1.729348659515381 7.725198745727539 -9.5367431640625e-07 5.995848655700684 -9.5367431640625e-07 3.862598896026611 C -9.5367431640625e-07 1.729348659515381 1.729348659515381 -9.5367431640625e-07 3.862598896026611 -9.5367431640625e-07 Z" stroke="none" fill="#fff"/>
      </g>
    </g>
  </g>
</svg>
