<svg xmlns="http://www.w3.org/2000/svg" width="46" height="46" viewBox="0 0 46 46">
  <g id="Group_6284" data-name="Group 6284" transform="translate(-11246 -15561)">
    <g id="Group_6243" data-name="Group 6243" transform="translate(53 2)">
      <g id="Group_6241" data-name="Group 6241" transform="translate(55 -1)">
        <g id="Group_6239" data-name="Group 6239" transform="translate(55 1)">
          <g id="Path_2964" data-name="Path 2964" transform="translate(11083 15559)" fill="#2d344d">
            <path d="M 23 45.5 C 19.96229934692383 45.5 17.0157299041748 44.90517044067383 14.24213981628418 43.73204040527344 C 11.56291007995605 42.59883117675781 9.156620025634766 40.97642135620117 7.090099811553955 38.9099006652832 C 5.023580074310303 36.84337997436523 3.401170015335083 34.43709182739258 2.267960071563721 31.75786018371582 C 1.09483003616333 28.9842700958252 0.5 26.03770065307617 0.5 23 C 0.5 19.96229934692383 1.09483003616333 17.0157299041748 2.267960071563721 14.24213981628418 C 3.401170015335083 11.56291007995605 5.023580074310303 9.156620025634766 7.090099811553955 7.090099811553955 C 9.156620025634766 5.023580074310303 11.56291007995605 3.401170015335083 14.24213981628418 2.267960071563721 C 17.0157299041748 1.09483003616333 19.96229934692383 0.5 23 0.5 C 26.03770065307617 0.5 28.9842700958252 1.09483003616333 31.75786018371582 2.267960071563721 C 34.43709182739258 3.401170015335083 36.84337997436523 5.023580074310303 38.9099006652832 7.090099811553955 C 40.97642135620117 9.156620025634766 42.59883117675781 11.56291007995605 43.73204040527344 14.24213981628418 C 44.90517044067383 17.0157299041748 45.5 19.96229934692383 45.5 23 C 45.5 26.03770065307617 44.90517044067383 28.9842700958252 43.73204040527344 31.75786018371582 C 42.59883117675781 34.43709182739258 40.97642135620117 36.84337997436523 38.9099006652832 38.9099006652832 C 36.84337997436523 40.97642135620117 34.43709182739258 42.59883117675781 31.75786018371582 43.73204040527344 C 28.9842700958252 44.90517044067383 26.03770065307617 45.5 23 45.5 Z" stroke="none"/>
            <path d="M 23 1 C 20.02957916259766 1 17.14854049682617 1.581539154052734 14.43691062927246 2.728458404541016 C 11.81729125976562 3.836471557617188 9.464408874511719 5.422889709472656 7.443649291992188 7.443649291992188 C 5.422889709472656 9.464408874511719 3.836471557617188 11.81729125976562 2.728458404541016 14.43691062927246 C 1.581539154052734 17.14854049682617 1 20.02957916259766 1 23 C 1 25.97042083740234 1.581539154052734 28.85145950317383 2.728458404541016 31.56309127807617 C 3.836471557617188 34.18270874023438 5.422889709472656 36.53559112548828 7.443649291992188 38.55635070800781 C 9.464408874511719 40.57711029052734 11.81729125976562 42.16352844238281 14.43691062927246 43.27154159545898 C 17.14854049682617 44.41846084594727 20.02957916259766 45 23 45 C 25.97042083740234 45 28.85145950317383 44.41846084594727 31.56309127807617 43.27154159545898 C 34.18270874023438 42.16352844238281 36.53559112548828 40.57711029052734 38.55635070800781 38.55635070800781 C 40.57711029052734 36.53559112548828 42.16352844238281 34.18270874023438 43.27154159545898 31.56309127807617 C 44.41846084594727 28.85145950317383 45 25.97042083740234 45 23 C 45 20.02957916259766 44.41846084594727 17.14854049682617 43.27154159545898 14.43691062927246 C 42.16352844238281 11.81729125976562 40.57711029052734 9.464408874511719 38.55635070800781 7.443649291992188 C 36.53559112548828 5.422889709472656 34.18270874023438 3.836471557617188 31.56309127807617 2.728458404541016 C 28.85145950317383 1.581539154052734 25.97042083740234 1 23 1 M 23 0 C 35.70254898071289 0 46 10.29745101928711 46 23 C 46 35.70254898071289 35.70254898071289 46 23 46 C 10.29745101928711 46 0 35.70254898071289 0 23 C 0 10.29745101928711 10.29745101928711 0 23 0 Z" stroke="none" fill="#2d344d"/>
          </g>
        </g>
      </g>
    </g>
    <g id="Grupo_6140" data-name="Grupo 6140" transform="translate(9421.679 13120.572)">
      <path id="Sustracción_167" data-name="Sustracción 167" d="M14.366,24.421H3.034A3.034,3.034,0,0,1,0,21.387V3.034A3.034,3.034,0,0,1,3.034,0H14.366A3.034,3.034,0,0,1,17.4,3.034V21.387A3.034,3.034,0,0,1,14.366,24.421ZM8.7,20.869a1.418,1.418,0,1,0,1.45,1.418A1.436,1.436,0,0,0,8.7,20.869ZM3.769,3.138A1.517,1.517,0,0,0,2.253,4.655V16.922a1.517,1.517,0,0,0,1.517,1.517h9.859a1.517,1.517,0,0,0,1.517-1.517V4.655a1.517,1.517,0,0,0-1.517-1.517Z" transform="translate(1838.321 2451.428)" fill="#fff"/>
    </g>
  </g>
</svg>
